<svg width="88" height="66" viewBox="0 0 88 66" fill="none" xmlns="http://www.w3.org/2000/svg">
  <path d="M68.468 24.5766C67.9895 25.521 67.2303 26.3596 66.5176 26.7312C66.209 26.892 65.838 27.0921 65.6929 27.1759C65.4523 27.315 64.6631 27.6457 64.4895 27.6801C64.4497 27.6879 64.3521 27.7336 64.2726 27.7814C63.4906 28.2529 62.7639 28.2683 41.282 28.2683C21.4735 28.2683 19.9661 28.2511 19.1381 28.0152C16.7956 27.3481 15.5846 27.9956 15.0997 30.1746C14.7234 31.8664 14.8982 35.3818 15.5192 38.6068C15.7088 39.5918 17.0474 43.1989 17.3625 43.5739C17.5529 43.8005 18.6529 45.5425 18.6529 45.6174C18.6529 45.8529 19.6433 47.0663 20.0751 47.3597C20.3665 47.5578 20.613 47.7841 20.623 47.8626C20.633 47.9411 20.6491 47.9756 20.6591 47.939C20.6747 47.8814 22.1382 48.9309 22.8839 49.5344C23.024 49.6478 23.1942 49.7406 23.2621 49.7406C23.3299 49.7406 23.5406 49.8582 23.7303 50.0019C24.6537 50.7013 28.0719 51.791 30.4374 52.1397C31.7115 52.3277 37.9806 52.3284 39.1854 52.1409C39.4637 52.0975 40.0493 52.0233 40.4867 51.9759C41.1333 51.9059 42.5534 51.6548 44.5604 51.2555C45.2437 51.1196 48.3726 49.9947 49.1281 49.6134C50.2609 49.0415 52.6065 47.6579 53.0665 47.29C53.7355 46.755 54.657 45.8814 54.657 45.7819C54.657 45.6578 56.2029 43.8027 56.5093 43.5592C56.6343 43.4599 56.6754 43.3774 56.6005 43.3763C56.5258 43.375 56.5386 43.3262 56.6291 43.2678C56.7995 43.1578 58.106 41.0512 58.7126 39.9082C58.9026 39.5503 59.1337 39.1599 59.2262 39.0406C59.3188 38.9213 59.444 38.661 59.5046 38.4622C59.733 37.7122 62.0886 34.5671 62.2792 34.7578C62.3163 34.795 62.6323 34.6075 62.9811 34.3413C63.727 33.7718 64.9306 33.4734 65.9165 33.6134C66.7852 33.7367 68.1392 34.5528 69.0188 35.4833C69.6887 36.1918 71.43 38.6748 71.43 38.9215C71.43 38.987 71.555 39.0406 71.7076 39.0406C71.9423 39.0406 72.0007 38.897 72.0845 38.1155C72.2075 36.967 72.0852 35.3312 71.7934 34.2202C71.4978 33.0949 70.6362 31.2517 70.3553 31.1438C70.2316 31.0964 70.1663 30.9994 70.2104 30.9281C70.2543 30.857 70.2154 30.7987 70.1239 30.7987C70.0324 30.7987 69.6544 30.5282 69.2838 30.1973L68.6101 29.5961L69.0364 28.736C69.3882 28.0264 69.4713 27.6575 69.512 26.6263C69.5627 25.3357 69.3161 23.9969 69.0084 23.8944C68.9168 23.8639 68.6738 24.1709 68.468 24.5766Z" fill="#4255FF" stroke="#4255FF" stroke-width="0.144595"/>
  <path d="M46.9934 13.4107C43.5055 13.6017 39.669 14.7662 36.8028 16.5039C35.9682 17.0098 35.0269 17.562 34.7109 17.7311C34.395 17.9001 34.1772 18.079 34.2268 18.1287C34.2766 18.1785 34.2237 18.2191 34.1093 18.2191C33.633 18.2191 29.6471 22.4314 28.5188 24.1271C28.063 24.8122 27.7076 25.3906 27.729 25.4124C27.7835 25.4675 27.3116 26.3727 27.1822 26.461C27.0759 26.5336 26.4609 27.8212 26.4609 27.9713C26.4609 28.0154 28.6064 28.0515 31.2288 28.0515H35.9968L36.2211 27.6178C36.3444 27.3792 36.4274 27.1763 36.4056 27.1669C36.3836 27.1574 36.4225 27.1601 36.4919 27.1727C36.5613 27.1854 36.5823 27.1027 36.5386 26.9889C36.495 26.875 36.5871 26.6446 36.7434 26.4769C36.8997 26.309 36.9763 26.1708 36.9136 26.1696C36.8508 26.1683 36.8661 26.1196 36.9477 26.0612C37.0292 26.0028 37.4351 25.4926 37.8497 24.9276C38.7415 23.7117 40.529 21.972 41.6434 21.2355C42.5101 20.6626 44.7155 19.5177 45.0943 19.444C45.2243 19.4186 45.3469 19.3848 45.3667 19.3689C45.3867 19.3529 45.4626 19.3316 45.5355 19.3216C45.6083 19.3116 45.7168 19.2548 45.7764 19.1951C45.8361 19.1355 45.9992 19.0867 46.1387 19.0867C46.2871 19.0867 46.6613 18.7023 47.0384 18.1628C47.3937 17.6547 47.7935 17.118 47.9271 16.9699C48.4248 16.4186 50.0299 14.1751 50.0299 14.0309C50.0299 13.9486 50.093 13.8812 50.17 13.8812C50.2469 13.8812 50.273 13.7848 50.2279 13.667C50.1599 13.49 49.9206 13.4686 48.8513 13.5445C48.1003 13.5978 47.5753 13.5816 47.6006 13.5057C47.6244 13.434 47.3513 13.3912 46.9934 13.4107Z" fill="#4255FF" stroke="#4255FF" stroke-width="0.144595"/>
  <path d="M49.6683 18.6535C49.0321 18.7106 48.1384 18.8358 47.6822 18.9317C47.226 19.0277 46.8356 19.0995 46.8146 19.0914C46.7936 19.0832 46.132 19.3388 45.3442 19.6593C43.8409 20.271 41.6433 21.4823 41.6433 21.6992C41.6433 21.7692 41.4433 21.9298 41.1988 22.0562C40.2741 22.5344 38.0202 25.1673 37.163 26.7703C36.4211 28.1581 36.0434 28.0514 41.6962 28.0514H46.6654L46.9803 27.1879C47.1534 26.7129 47.3946 26.2249 47.516 26.1034C47.6375 25.982 47.7005 25.8825 47.6562 25.8825C47.5775 25.8825 47.9662 25.2441 49.2577 23.2513C49.6028 22.7187 49.8852 22.2144 49.8852 22.1307C49.8852 22.047 49.9503 21.9784 50.0298 21.9784C50.1093 21.9784 50.1744 21.8863 50.1744 21.7735C50.1744 21.6609 50.2242 21.5471 50.285 21.5205C50.4275 21.4585 52.1875 19.1397 52.2849 18.8857C52.3559 18.7005 51.5912 18.482 51.042 18.5306C50.9227 18.5411 50.3045 18.5963 49.6683 18.6535Z" fill="#4255FF" stroke="#4255FF" stroke-width="0.144595"/>
</svg>
